<?xml version="1.0" encoding="UTF-8" standalone="no"?>
<svg
   xmlns:dc="http://purl.org/dc/elements/1.1/"
   xmlns:cc="http://creativecommons.org/ns#"
   xmlns:rdf="http://www.w3.org/1999/02/22-rdf-syntax-ns#"
   xmlns:svg="http://www.w3.org/2000/svg"
   xmlns="http://www.w3.org/2000/svg"
   xmlns:sodipodi="http://sodipodi.sourceforge.net/DTD/sodipodi-0.dtd"
   xmlns:inkscape="http://www.inkscape.org/namespaces/inkscape"
   version="1.1"
   id="Content"
   x="0px"
   y="0px"
   viewBox="0 0 1080 1080"
   style="enable-background:new 0 0 1080 1080;"
   xml:space="preserve"
   sodipodi:docname="c&amp;h.svg"
   inkscape:version="1.0 (4035a4fb49, 2020-05-01)"><metadata
   id="metadata17"><rdf:RDF><cc:Work
       rdf:about=""><dc:format>image/svg+xml</dc:format><dc:type
         rdf:resource="http://purl.org/dc/dcmitype/StillImage" /><dc:title></dc:title></cc:Work></rdf:RDF></metadata><defs
   id="defs15"><inkscape:path-effect
     effect="fillet_chamfer"
     id="path-effect869"
     is_visible="true"
     lpeversion="1"
     satellites_param="F,0,0,1,0,8,0,1 @ F,0,0,1,0,8,0,1 @ F,0,0,1,0,8,0,1 @ F,0,0,1,0,8,0,1 @ F,0,0,1,0,8,0,1 @ F,0,0,1,0,8,0,1 @ F,0,0,1,0,8,0,1 @ F,0,0,1,0,8,0,1 | F,0,1,1,0,12,0,1 @ F,0,0,1,0,8,0,1 @ F,0,0,1,0,12,0,1 @ F,0,0,1,0,8,0,1 @ F,0,0,1,0,8,0,1 @ F,0,0,1,0,8,0,1 @ F,0,0,1,0,8,0,1 | F,0,1,1,0,12,0,1 @ F,0,0,1,0,8,0,1 @ F,0,0,1,0,8,0,1 @ F,0,0,1,0,8,0,1 @ F,0,0,1,0,8,0,1 @ F,0,0,1,0,12,0,1 @ F,0,0,1,0,8,0,1 | F,0,0,1,0,24,0,1 @ F,0,0,1,0,24,0,1 @ F,0,0,1,0,8,0,1 @ F,0,0,1,0,8,0,1 @ F,0,0,1,0,8,0,1 | F,0,0,1,0,24,0,1 @ F,0,0,1,0,8,0,1 @ F,0,0,1,0,8,0,1 @ F,0,0,1,0,8,0,1 @ F,0,0,1,0,24,0,1 | F,0,0,1,0,8,0,1 @ F,0,0,1,0,8,0,1 @ F,0,0,1,0,8,0,1 @ F,0,0,1,0,8,0,1 @ F,0,0,1,0,8,0,1 @ F,0,0,1,0,8,0,1 @ F,0,0,1,0,8,0,1 @ F,0,0,1,0,8,0,1 @ F,0,0,1,0,8,0,1 | F,0,0,1,0,8,0,1 @ F,0,0,1,0,8,0,1 @ F,0,1,1,0,12,0,1 @ F,0,0,1,0,8,0,1 @ F,0,0,1,0,8,0,1 @ F,0,0,1,0,8,0,1 @ F,0,0,1,0,8,0,1 | F,0,0,1,0,8,0,1 @ F,0,0,1,0,8,0,1 @ F,0,0,1,0,8,0,1 @ F,0,0,1,0,8,0,1 @ F,0,0,1,0,8,0,1 @ F,0,1,1,0,12,0,1 @ F,0,0,1,0,8,0,1 | F,0,0,1,0,8,0,1 @ F,0,0,1,0,8,0,1 @ F,0,0,1,0,8,0,1 @ F,0,0,1,0,8,0,1 @ F,0,0,1,0,8,0,1 @ F,0,0,1,0,8,0,1 @ F,0,0,1,0,8,0,1 @ F,0,0,1,0,8,0,1 @ F,0,0,1,0,8,0,1"
     unit="px"
     method="auto"
     mode="F"
     radius="12"
     chamfer_steps="1"
     flexible="false"
     use_knot_distance="true"
     apply_no_radius="true"
     apply_with_radius="true"
     only_selected="true"
     hide_knots="false" /><inkscape:path-effect
     hide_knots="false"
     only_selected="true"
     apply_with_radius="true"
     apply_no_radius="true"
     use_knot_distance="true"
     flexible="false"
     chamfer_steps="1"
     radius="12"
     mode="F"
     method="auto"
     unit="px"
     satellites_param="F,0,0,1,0,8,0,1 @ F,0,0,1,0,8,0,1 @ F,0,0,1,0,8,0,1 @ F,0,0,1,0,8,0,1 @ F,0,0,1,0,8,0,1 @ F,0,0,1,0,8,0,1 @ F,0,0,1,0,8,0,1 @ F,0,0,1,0,8,0,1 | F,0,1,1,0,12,0,1 @ F,0,0,1,0,8,0,1 @ F,0,0,1,0,12,0,1 @ F,0,0,1,0,8,0,1 @ F,0,0,1,0,8,0,1 @ F,0,0,1,0,8,0,1 @ F,0,0,1,0,8,0,1 | F,0,1,1,0,12,0,1 @ F,0,0,1,0,8,0,1 @ F,0,0,1,0,8,0,1 @ F,0,0,1,0,8,0,1 @ F,0,0,1,0,8,0,1 @ F,0,0,1,0,12,0,1 @ F,0,0,1,0,8,0,1 | F,0,0,1,0,24,0,1 @ F,0,0,1,0,24,0,1 @ F,0,0,1,0,8,0,1 @ F,0,0,1,0,8,0,1 @ F,0,0,1,0,8,0,1 | F,0,0,1,0,24,0,1 @ F,0,0,1,0,8,0,1 @ F,0,0,1,0,8,0,1 @ F,0,0,1,0,8,0,1 @ F,0,0,1,0,24,0,1 | F,0,0,1,0,8,0,1 @ F,0,0,1,0,8,0,1 @ F,0,0,1,0,8,0,1 @ F,0,0,1,0,8,0,1 @ F,0,0,1,0,8,0,1 @ F,0,0,1,0,8,0,1 @ F,0,0,1,0,8,0,1 @ F,0,0,1,0,8,0,1 @ F,0,0,1,0,8,0,1 | F,0,0,1,0,8,0,1 @ F,0,0,1,0,8,0,1 @ F,0,1,1,0,12,0,1 @ F,0,0,1,0,8,0,1 @ F,0,0,1,0,8,0,1 @ F,0,0,1,0,8,0,1 @ F,0,0,1,0,8,0,1 | F,0,0,1,0,8,0,1 @ F,0,0,1,0,8,0,1 @ F,0,0,1,0,8,0,1 @ F,0,0,1,0,8,0,1 @ F,0,0,1,0,8,0,1 @ F,0,1,1,0,12,0,1 @ F,0,0,1,0,8,0,1 | F,0,0,1,0,8,0,1 @ F,0,0,1,0,8,0,1 @ F,0,0,1,0,8,0,1 @ F,0,0,1,0,8,0,1 @ F,0,0,1,0,8,0,1 @ F,0,0,1,0,8,0,1 @ F,0,0,1,0,8,0,1 @ F,0,0,1,0,8,0,1 @ F,0,0,1,0,8,0,1"
     lpeversion="1"
     is_visible="true"
     id="path-effect961"
     effect="fillet_chamfer" /><inkscape:path-effect
     hide_knots="false"
     only_selected="false"
     apply_with_radius="true"
     apply_no_radius="true"
     use_knot_distance="true"
     flexible="false"
     chamfer_steps="1"
     radius="23"
     mode="F"
     method="auto"
     unit="px"
     satellites_param="F,0,0,1,0,23,0,1 @ F,0,0,1,0,23,0,1 @ F,0,0,1,0,23,0,1 @ F,0,0,1,0,23,0,1 @ F,0,0,1,0,23,0,1 @ F,0,0,1,0,23,0,1 @ F,0,0,1,0,23,0,1 @ F,0,0,1,0,23,0,1 | F,0,0,1,0,23,0,1 @ F,0,0,1,0,23,0,1 @ F,0,0,1,0,23,0,1 @ F,0,0,1,0,23,0,1 @ F,0,0,1,0,23,0,1 @ F,0,0,1,0,23,0,1 @ F,0,0,1,0,23,0,1 | F,0,0,1,0,23,0,1 @ F,0,0,1,0,23,0,1 @ F,0,0,1,0,23,0,1 @ F,0,0,1,0,23,0,1 @ F,0,0,1,0,23,0,1 @ F,0,0,1,0,23,0,1 @ F,0,0,1,0,23,0,1 @ F,0,0,1,0,23,0,1 @ F,0,0,1,0,23,0,1 | F,0,0,1,0,23,0,1 @ F,0,0,1,0,23,0,1 @ F,0,0,1,0,23,0,1 @ F,0,0,1,0,23,0,1 @ F,0,0,1,0,23,0,1 @ F,0,0,1,0,23,0,1 @ F,0,0,1,0,23,0,1 @ F,0,0,1,0,23,0,1 | F,0,0,1,0,23,0,1 @ F,0,0,1,0,23,0,1 @ F,0,0,1,0,23,0,1 @ F,0,0,1,0,23,0,1 @ F,0,0,1,0,23,0,1 | F,0,0,1,0,23,0,1 @ F,0,0,1,0,23,0,1 @ F,0,0,1,0,23,0,1 @ F,0,0,1,0,23,0,1 @ F,0,0,1,0,23,0,1 @ F,0,0,1,0,23,0,1 @ F,0,0,1,0,23,0,1 @ F,0,0,1,0,23,0,1 @ F,0,0,1,0,23,0,1 | F,0,0,1,0,23,0,1 @ F,0,0,1,0,23,0,1 @ F,0,0,1,0,23,0,1 @ F,0,0,1,0,23,0,1 @ F,0,0,1,0,23,0,1 @ F,0,0,1,0,23,0,1 @ F,0,0,1,0,23,0,1 | F,0,0,1,0,23,0,1 @ F,0,0,1,0,23,0,1 @ F,0,0,1,0,23,0,1 @ F,0,0,1,0,23,0,1 @ F,0,0,1,0,23,0,1 @ F,0,0,1,0,23,0,1 @ F,0,0,1,0,23,0,1 @ F,0,0,1,0,23,0,1 @ F,0,0,1,0,23,0,1 | F,0,0,1,0,23,0,1 @ F,0,0,1,0,23,0,1 @ F,0,0,1,0,23,0,1 @ F,0,0,1,0,23,0,1 @ F,0,0,1,0,23,0,1 @ F,0,0,1,0,23,0,1 @ F,0,0,1,0,23,0,1 @ F,0,0,1,0,23,0,1 @ F,0,0,1,0,23,0,1"
     lpeversion="1"
     is_visible="true"
     id="path-effect958"
     effect="fillet_chamfer" /><inkscape:path-effect
     hide_knots="false"
     only_selected="true"
     apply_with_radius="true"
     apply_no_radius="true"
     use_knot_distance="true"
     flexible="false"
     chamfer_steps="1"
     radius="12"
     mode="F"
     method="auto"
     unit="px"
     satellites_param="F,0,0,1,0,8,0,1 @ F,0,0,1,0,8,0,1 @ F,0,0,1,0,8,0,1 @ F,0,0,1,0,8,0,1 @ F,0,0,1,0,8,0,1 @ F,0,0,1,0,8,0,1 @ F,0,0,1,0,8,0,1 @ F,0,0,1,0,8,0,1 @ F,0,0,1,0,8,0,1 @ F,0,0,1,0,8,0,1 @ F,0,0,1,0,8,0,1 | F,0,0,1,0,8,0,1 @ F,0,0,1,0,8,0,1 @ F,0,0,1,0,12,0,1 @ F,0,0,1,0,8,0,1 @ F,0,0,1,0,8,0,1 @ F,0,0,1,0,8,0,1 @ F,0,0,1,0,8,0,1 @ F,0,0,1,0,8,0,1 | F,0,0,1,0,8,0,1 @ F,0,0,1,0,8,0,1 @ F,0,0,1,0,8,0,1 @ F,0,0,1,0,8,0,1 @ F,0,0,1,0,8,0,1 @ F,0,0,1,0,12,0,1 @ F,0,0,1,0,8,0,1 | F,0,0,1,0,24,0,1 @ F,0,0,1,0,8,0,1 @ F,0,0,1,0,8,0,1 @ F,0,0,1,0,24,0,1 @ F,0,0,1,0,8,0,1 @ F,0,0,1,0,8,0,1 @ F,0,0,1,0,8,0,1 | F,0,0,1,0,24,0,1 @ F,0,0,1,0,8,0,1 @ F,0,0,1,0,8,0,1 @ F,0,0,1,0,8,0,1 @ F,0,0,1,0,24,0,1 @ F,0,0,1,0,8,0,1 | F,0,0,1,0,8,0,1 @ F,0,0,1,0,8,0,1 @ F,0,0,1,0,8,0,1 @ F,0,0,1,0,8,0,1 @ F,0,0,1,0,8,0,1 @ F,0,0,1,0,8,0,1 @ F,0,0,1,0,8,0,1 @ F,0,0,1,0,8,0,1 @ F,0,0,1,0,8,0,1 @ F,0,0,1,0,8,0,1 @ F,0,0,1,0,8,0,1 | F,0,1,1,0,12,0,1 @ F,0,0,1,0,8,0,1 @ F,0,0,1,0,8,0,1 @ F,0,0,1,0,8,0,1 @ F,0,0,1,0,8,0,1 @ F,0,0,1,0,8,0,1 @ F,0,0,1,0,8,0,1 | F,0,1,1,0,12,0,1 @ F,0,0,1,0,8,0,1 @ F,0,0,1,0,8,0,1 @ F,0,0,1,0,8,0,1 @ F,0,0,1,0,8,0,1 @ F,0,0,1,0,8,0,1 @ F,0,0,1,0,8,0,1 @ F,0,1,1,0,12,0,1 | F,0,0,1,0,8,0,1 @ F,0,0,1,0,8,0,1 @ F,0,0,1,0,8,0,1 @ F,0,0,1,0,8,0,1 @ F,0,0,1,0,8,0,1 @ F,0,0,1,0,8,0,1 @ F,0,0,1,0,8,0,1 @ F,0,0,1,0,8,0,1 @ F,0,0,1,0,8,0,1 @ F,0,0,1,0,8,0,1 @ F,0,0,1,0,8,0,1"
     lpeversion="1"
     is_visible="true"
     id="path-effect914"
     effect="fillet_chamfer" /><inkscape:path-effect
     hide_knots="false"
     only_selected="false"
     apply_with_radius="true"
     apply_no_radius="true"
     use_knot_distance="true"
     flexible="false"
     chamfer_steps="1"
     radius="8"
     mode="F"
     method="auto"
     unit="px"
     satellites_param="F,0,0,1,0,8,0,1 @ F,0,0,1,0,8,0,1 @ F,0,0,1,0,8,0,1 @ F,0,0,1,0,8,0,1 @ F,0,0,1,0,8,0,1 @ F,0,0,1,0,8,0,1 @ F,0,0,1,0,8,0,1 @ F,0,0,1,0,8,0,1 @ F,0,0,1,0,8,0,1 @ F,0,0,1,0,8,0,1 @ F,0,0,1,0,8,0,1 | F,0,0,1,0,8,0,1 @ F,0,0,1,0,8,0,1 @ F,0,0,1,0,8,0,1 @ F,0,0,1,0,8,0,1 @ F,0,0,1,0,8,0,1 @ F,0,0,1,0,8,0,1 @ F,0,0,1,0,8,0,1 @ F,0,0,1,0,8,0,1 | F,0,0,1,0,8,0,1 @ F,0,0,1,0,8,0,1 @ F,0,0,1,0,8,0,1 @ F,0,0,1,0,8,0,1 @ F,0,0,1,0,8,0,1 @ F,0,0,1,0,8,0,1 @ F,0,0,1,0,8,0,1 @ F,0,0,1,0,8,0,1 @ F,0,0,1,0,8,0,1 | F,0,0,1,0,8,0,1 @ F,0,0,1,0,8,0,1 @ F,0,0,1,0,8,0,1 @ F,0,0,1,0,8,0,1 @ F,0,0,1,0,8,0,1 @ F,0,0,1,0,8,0,1 @ F,0,0,1,0,8,0,1 @ F,0,0,1,0,8,0,1 @ F,0,0,1,0,8,0,1 | F,0,0,1,0,8,0,1 @ F,0,0,1,0,8,0,1 @ F,0,0,1,0,8,0,1 @ F,0,0,1,0,8,0,1 @ F,0,0,1,0,8,0,1 @ F,0,0,1,0,8,0,1 @ F,0,0,1,0,8,0,1 | F,0,0,1,0,8,0,1 @ F,0,0,1,0,8,0,1 @ F,0,0,1,0,8,0,1 @ F,0,0,1,0,8,0,1 @ F,0,0,1,0,8,0,1 @ F,0,0,1,0,8,0,1 @ F,0,0,1,0,8,0,1 @ F,0,0,1,0,8,0,1 @ F,0,0,1,0,8,0,1 @ F,0,0,1,0,8,0,1 @ F,0,0,1,0,8,0,1 | F,0,0,1,0,8,0,1 @ F,0,0,1,0,8,0,1 @ F,0,0,1,0,8,0,1 @ F,0,0,1,0,8,0,1 @ F,0,0,1,0,8,0,1 @ F,0,0,1,0,8,0,1 @ F,0,0,1,0,8,0,1 | F,0,0,1,0,8,0,1 @ F,0,0,1,0,8,0,1 @ F,0,0,1,0,8,0,1 @ F,0,0,1,0,8,0,1 @ F,0,0,1,0,8,0,1 @ F,0,0,1,0,8,0,1 @ F,0,0,1,0,8,0,1 @ F,0,0,1,0,8,0,1 @ F,0,0,1,0,8,0,1 @ F,0,0,1,0,8,0,1 | F,0,0,1,0,8,0,1 @ F,0,0,1,0,8,0,1 @ F,0,0,1,0,8,0,1 @ F,0,0,1,0,8,0,1 @ F,0,0,1,0,8,0,1 @ F,0,0,1,0,8,0,1 @ F,0,0,1,0,8,0,1 @ F,0,0,1,0,8,0,1 @ F,0,0,1,0,8,0,1 @ F,0,0,1,0,8,0,1 @ F,0,0,1,0,8,0,1"
     lpeversion="1"
     is_visible="true"
     id="path-effect911"
     effect="fillet_chamfer" /><inkscape:path-effect
     hide_knots="false"
     only_selected="false"
     apply_with_radius="true"
     apply_no_radius="true"
     use_knot_distance="true"
     flexible="false"
     chamfer_steps="1"
     radius="8"
     mode="F"
     method="auto"
     unit="px"
     satellites_param="F,0,0,1,0,8,0,1 @ F,0,0,1,0,8,0,1 @ F,0,0,1,0,8,0,1 @ F,0,0,1,0,8,0,1 @ F,0,0,1,0,8,0,1 @ F,0,0,1,0,8,0,1 @ F,0,0,1,0,8,0,1 @ F,0,0,1,0,8,0,1 @ F,0,0,1,0,8,0,1 @ F,0,0,1,0,8,0,1 @ F,0,0,1,0,8,0,1 | F,0,0,1,0,8,0,1 @ F,0,0,1,0,8,0,1 @ F,0,0,1,0,8,0,1 @ F,0,0,1,0,8,0,1 @ F,0,0,1,0,8,0,1 @ F,0,0,1,0,8,0,1 @ F,0,0,1,0,8,0,1 @ F,0,0,1,0,8,0,1 | F,0,0,1,0,8,0,1 @ F,0,0,1,0,8,0,1 @ F,0,0,1,0,8,0,1 @ F,0,0,1,0,8,0,1 @ F,0,0,1,0,8,0,1 @ F,0,0,1,0,8,0,1 @ F,0,0,1,0,8,0,1 @ F,0,0,1,0,8,0,1 @ F,0,0,1,0,8,0,1 | F,0,0,1,0,8,0,1 @ F,0,0,1,0,8,0,1 @ F,0,0,1,0,8,0,1 @ F,0,0,1,0,8,0,1 @ F,0,0,1,0,8,0,1 @ F,0,0,1,0,8,0,1 @ F,0,0,1,0,8,0,1 @ F,0,0,1,0,8,0,1 @ F,0,0,1,0,8,0,1 @ F,0,0,1,0,8,0,1 | F,0,0,1,0,8,0,1 @ F,0,0,1,0,8,0,1 @ F,0,0,1,0,8,0,1 @ F,0,0,1,0,8,0,1 @ F,0,0,1,0,8,0,1 @ F,0,0,1,0,8,0,1 @ F,0,0,1,0,8,0,1 @ F,0,0,1,0,8,0,1 | F,0,0,1,0,8,0,1 @ F,0,0,1,0,8,0,1 @ F,0,0,1,0,8,0,1 @ F,0,0,1,0,8,0,1 @ F,0,0,1,0,8,0,1 @ F,0,0,1,0,8,0,1 @ F,0,0,1,0,8,0,1 @ F,0,0,1,0,8,0,1 @ F,0,0,1,0,8,0,1 @ F,0,0,1,0,8,0,1 @ F,0,0,1,0,8,0,1 | F,0,0,1,0,8,0,1 @ F,0,0,1,0,8,0,1 @ F,0,0,1,0,8,0,1 @ F,0,0,1,0,8,0,1 @ F,0,0,1,0,8,0,1 @ F,0,0,1,0,8,0,1 @ F,0,0,1,0,8,0,1 | F,0,0,1,0,8,0,1 @ F,0,0,1,0,8,0,1 @ F,0,0,1,0,8,0,1 @ F,0,0,1,0,8,0,1 @ F,0,0,1,0,8,0,1 @ F,0,0,1,0,8,0,1 @ F,0,0,1,0,8,0,1 @ F,0,0,1,0,8,0,1 @ F,0,0,1,0,8,0,1 @ F,0,0,1,0,8,0,1 | F,0,0,1,0,8,0,1 @ F,0,0,1,0,8,0,1 @ F,0,0,1,0,8,0,1 @ F,0,0,1,0,8,0,1 @ F,0,0,1,0,8,0,1 @ F,0,0,1,0,8,0,1 @ F,0,0,1,0,8,0,1 @ F,0,0,1,0,8,0,1 @ F,0,0,1,0,8,0,1 @ F,0,0,1,0,8,0,1 @ F,0,0,1,0,8,0,1"
     lpeversion="1"
     is_visible="true"
     id="path-effect888"
     effect="fillet_chamfer" /><inkscape:path-effect
     hide_knots="false"
     only_selected="false"
     apply_with_radius="true"
     apply_no_radius="true"
     use_knot_distance="true"
     flexible="false"
     chamfer_steps="1"
     radius="8"
     mode="F"
     method="auto"
     unit="px"
     satellites_param="F,0,0,1,0,8,0,1 @ F,0,0,1,0,8,0,1 @ F,0,0,1,0,8,0,1 @ F,0,0,1,0,8,0,1 @ F,0,0,1,0,8,0,1 @ F,0,0,1,0,8,0,1 @ F,0,0,1,0,8,0,1 @ F,0,0,1,0,8,0,1 @ F,0,0,1,0,8,0,1 @ F,0,0,1,0,8,0,1 @ F,0,0,1,0,8,0,1 | F,0,0,1,0,8,0,1 @ F,0,0,1,0,8,0,1 @ F,0,0,1,0,8,0,1 @ F,0,0,1,0,8,0,1 @ F,0,0,1,0,8,0,1 @ F,0,0,1,0,8,0,1 @ F,0,0,1,0,8,0,1 @ F,0,0,1,0,8,0,1 @ F,0,0,1,0,8,0,1 | F,0,0,1,0,8,0,1 @ F,0,0,1,0,8,0,1 @ F,0,0,1,0,8,0,1 @ F,0,0,1,0,8,0,1 @ F,0,0,1,0,8,0,1 @ F,0,0,1,0,8,0,1 @ F,0,0,1,0,8,0,1 | F,0,0,1,0,8,0,1 @ F,0,0,1,0,8,0,1 @ F,0,0,1,0,8,0,1 @ F,0,0,1,0,8,0,1 @ F,0,0,1,0,8,0,1 @ F,0,0,1,0,8,0,1 @ F,0,0,1,0,8,0,1 @ F,0,0,1,0,8,0,1 @ F,0,0,1,0,8,0,1 @ F,0,0,1,0,8,0,1 @ F,0,0,1,0,8,0,1 @ F,0,0,1,0,8,0,1 @ F,0,0,1,0,8,0,1 @ F,0,0,1,0,8,0,1 @ F,0,0,1,0,8,0,1 @ F,0,0,1,0,8,0,1 @ F,0,0,1,0,8,0,1 @ F,0,0,1,0,8,0,1 | F,0,0,1,0,8,0,1 @ F,0,0,1,0,8,0,1 @ F,0,0,1,0,8,0,1 @ F,0,0,1,0,8,0,1 @ F,0,0,1,0,8,0,1 @ F,0,0,1,0,8,0,1 @ F,0,0,1,0,8,0,1 | F,0,0,1,0,8,0,1 @ F,0,0,1,0,8,0,1 @ F,0,0,1,0,8,0,1 @ F,0,0,1,0,8,0,1 @ F,0,0,1,0,8,0,1 @ F,0,0,1,0,8,0,1 @ F,0,0,1,0,8,0,1 @ F,0,0,1,0,8,0,1 @ F,0,0,1,0,8,0,1 @ F,0,0,1,0,8,0,1 @ F,0,0,1,0,8,0,1 | F,0,0,1,0,8,0,1 @ F,0,0,1,0,8,0,1 @ F,0,0,1,0,8,0,1 @ F,0,0,1,0,8,0,1 @ F,0,0,1,0,8,0,1 @ F,0,0,1,0,8,0,1 @ F,0,0,1,0,8,0,1 @ F,0,0,1,0,8,0,1 | F,0,0,1,0,8,0,1 @ F,0,0,1,0,8,0,1 @ F,0,0,1,0,8,0,1 @ F,0,0,1,0,8,0,1 @ F,0,0,1,0,8,0,1 @ F,0,0,1,0,8,0,1 @ F,0,0,1,0,8,0,1 @ F,0,0,1,0,8,0,1 @ F,0,0,1,0,8,0,1 @ F,0,0,1,0,8,0,1 @ F,0,0,1,0,8,0,1"
     lpeversion="1"
     is_visible="true"
     id="path-effect865"
     effect="fillet_chamfer" /><inkscape:path-effect
     hide_knots="false"
     only_selected="false"
     apply_with_radius="true"
     apply_no_radius="true"
     use_knot_distance="true"
     flexible="false"
     chamfer_steps="1"
     radius="23"
     mode="F"
     method="auto"
     unit="px"
     satellites_param="F,0,0,1,0,23,0,1 @ F,0,0,1,0,23,0,1 @ F,0,0,1,0,23,0,1 @ F,0,0,1,0,23,0,1 @ F,0,0,1,0,23,0,1 @ F,0,0,1,0,23,0,1 @ F,0,0,1,0,23,0,1 @ F,0,0,1,0,23,0,1 @ F,0,0,1,0,23,0,1 @ F,0,0,1,0,23,0,1 @ F,0,0,1,0,23,0,1 | F,0,0,1,0,23,0,1 @ F,0,0,1,0,23,0,1 @ F,0,0,1,0,23,0,1 @ F,0,0,1,0,23,0,1 @ F,0,0,1,0,23,0,1 @ F,0,0,1,0,23,0,1 @ F,0,0,1,0,23,0,1 @ F,0,0,1,0,23,0,1 @ F,0,0,1,0,23,0,1 | F,0,0,1,0,23,0,1 @ F,0,0,1,0,23,0,1 @ F,0,0,1,0,23,0,1 @ F,0,0,1,0,23,0,1 @ F,0,0,1,0,23,0,1 @ F,0,0,1,0,23,0,1 @ F,0,0,1,0,23,0,1 | F,0,0,1,0,23,0,1 @ F,0,0,1,0,23,0,1 @ F,0,0,1,0,23,0,1 @ F,0,0,1,0,23,0,1 @ F,0,0,1,0,23,0,1 @ F,0,0,1,0,23,0,1 @ F,0,0,1,0,23,0,1 @ F,0,0,1,0,23,0,1 @ F,0,0,1,0,23,0,1 @ F,0,0,1,0,23,0,1 @ F,0,0,1,0,23,0,1 @ F,0,0,1,0,23,0,1 @ F,0,0,1,0,23,0,1 @ F,0,0,1,0,23,0,1 @ F,0,0,1,0,23,0,1 @ F,0,0,1,0,23,0,1 @ F,0,0,1,0,23,0,1 @ F,0,0,1,0,23,0,1 | F,0,0,1,0,23,0,1 @ F,0,0,1,0,23,0,1 @ F,0,0,1,0,23,0,1 @ F,0,0,1,0,23,0,1 @ F,0,0,1,0,23,0,1 @ F,0,0,1,0,23,0,1 @ F,0,0,1,0,23,0,1 @ F,0,0,1,0,23,0,1 @ F,0,0,1,0,23,0,1 @ F,0,0,1,0,23,0,1 @ F,0,0,1,0,23,0,1 @ F,0,0,1,0,23,0,1 @ F,0,0,1,0,23,0,1 @ F,0,0,1,0,23,0,1 @ F,0,0,1,0,23,0,1 @ F,0,0,1,0,23,0,1 | F,0,0,1,0,23,0,1 @ F,0,0,1,0,23,0,1 @ F,0,0,1,0,23,0,1 @ F,0,0,1,0,23,0,1 @ F,0,0,1,0,23,0,1 @ F,0,0,1,0,23,0,1 @ F,0,0,1,0,23,0,1 @ F,0,0,1,0,23,0,1 | F,0,0,1,0,23,0,1 @ F,0,0,1,0,23,0,1 @ F,0,0,1,0,23,0,1 @ F,0,0,1,0,23,0,1 @ F,0,0,1,0,23,0,1 @ F,0,0,1,0,23,0,1 @ F,0,0,1,0,23,0,1 | F,0,0,1,0,23,0,1 @ F,0,0,1,0,23,0,1 @ F,0,0,1,0,23,0,1 @ F,0,0,1,0,23,0,1 @ F,0,0,1,0,23,0,1 @ F,0,0,1,0,23,0,1 @ F,0,0,1,0,23,0,1 @ F,0,0,1,0,23,0,1 @ F,0,0,1,0,23,0,1 @ F,0,0,1,0,23,0,1 @ F,0,0,1,0,23,0,1"
     lpeversion="1"
     is_visible="true"
     id="path-effect862"
     effect="fillet_chamfer" /><rect
     id="rect865"
     height="35.371452"
     width="32.155865"
     y="104.06807"
     x="240.58434" /><rect
     id="rect859"
     height="26.60167"
     width="123.36159"
     y="97.929225"
     x="334.421" /><rect
     id="rect853"
     height="51.74171"
     width="113.71483"
     y="79.512684"
     x="261.04716" /><clipPath
     id="clipPath4427"
     clipPathUnits="userSpaceOnUse"><path
       id="path4425"
       clip-rule="evenodd"
       d="M 0,0 H 612 V 792 H 0 Z" /></clipPath><clipPath
     id="clipPath4725"
     clipPathUnits="userSpaceOnUse"><path
       id="path4723"
       clip-rule="evenodd"
       d="m 307.788,294 h 914.347 V 792 H 307.788 Z" /></clipPath><clipPath
     id="clipPath4741"
     clipPathUnits="userSpaceOnUse"><path
       id="path4739"
       d="M 0,0 H 6900 V 3200 H 0 Z" /></clipPath></defs><sodipodi:namedview
   inkscape:snap-nodes="true"
   inkscape:document-rotation="0"
   pagecolor="#ffffff"
   bordercolor="#666666"
   borderopacity="1"
   objecttolerance="10"
   gridtolerance="10"
   guidetolerance="10"
   inkscape:pageopacity="0"
   inkscape:pageshadow="2"
   inkscape:window-width="1920"
   inkscape:window-height="1027"
   id="namedview13"
   showgrid="false"
   inkscape:snap-page="true"
   inkscape:zoom="0.125"
   inkscape:cx="1545.1248"
   inkscape:cy="1488.7401"
   inkscape:window-x="1912"
   inkscape:window-y="22"
   inkscape:window-maximized="1"
   inkscape:current-layer="Content" />


<text
   xml:space="preserve"
   id="text857"
   style="font-style:normal;font-weight:normal;font-size:10.5833px;line-height:1.25;font-family:sans-serif;letter-spacing:0px;word-spacing:0px;white-space:pre;shape-inside:url(#rect859);fill:#9c362a;fill-opacity:1;stroke:none;"
   transform="matrix(3.7795276,0,0,3.7795276,607.36237,1189.425)" /><text
   xml:space="preserve"
   id="text863"
   style="font-style:normal;font-weight:normal;font-size:10.5833px;line-height:1.25;font-family:sans-serif;letter-spacing:0px;word-spacing:0px;white-space:pre;shape-inside:url(#rect865);fill:#9c362a;fill-opacity:1;stroke:none;"
   transform="matrix(3.7795276,0,0,3.7795276,607.36237,1189.425)" /><path
   id="path5465-6-5-2-1-9-9-0-3-8-4-2-0-8-3"
   style="fill:#9c362a;fill-opacity:1;stroke:none;stroke-width:77.7835px;stroke-linecap:butt;stroke-linejoin:miter;stroke-opacity:1"
   d="m 406.12177,63.456432 14.7741,70.833198 a 31.306852,31.306852 63.88406 0 0 6.82375,13.91921 l 69.389,81.387 a 22.194611,22.194611 69.371314 0 1 5.30299,14.08696 l 1.06362,75.50159 a 8.1134932,8.1134932 44.596452 0 0 8.11269,7.99921 h 56.8223 a 8.1136706,8.1136706 135.40417 0 0 8.11286,-7.9992 l 1.06528,-75.50161 a 22.195371,22.195371 110.62931 0 1 5.30316,-14.08695 l 69.389,-81.387 a 31.299768,31.299768 116.11283 0 0 6.8229,-13.91939 l 14.766,-70.832841 a 6.5042778,6.5042778 50.887691 0 0 -6.3674,-7.831641 l -255.0137,0 a 6.5035564,6.5035564 129.1092 0 0 -6.36655,7.831464 z m -83.61586,13.980592 -53.86259,62.362116 c -2.88801,3.34374 -3.96294,9.40482 -2.37549,13.52807 34.71914,90.17974 76.10428,170.58896 126.43816,237.87051 3.96997,5.30668 8.02802,4.2275 8.9623,-2.33373 l 7.65515,-53.76028 a 9.2198516,9.2198516 139.05205 0 1 9.12778,-7.92011 h 32.0996 a 7.5823934,7.5823934 133.46485 0 0 7.57151,-7.98852 l -3.37542,-62.92922 a 19.463403,19.463403 64.585666 0 0 -6.35102,-13.36659 l -92.51434,-84.00948 a 25.535319,25.535319 59.636974 0 1 -7.71774,-13.17404 L 333.04254,80.049426 a 6.0859847,6.0859847 13.924854 0 0 -10.53663,-2.612402 z m 424.44491,2.612636 -15.11517,65.66593 a 25.531427,25.531427 120.36053 0 1 -7.71706,13.1742 l -92.51434,84.00948 a 19.463403,19.463403 115.41433 0 0 -6.35102,13.36659 l -3.37542,62.92922 a 7.5823934,7.5823934 46.535154 0 0 7.57151,7.98852 h 32.1172 a 9.2176679,9.2176679 40.954663 0 1 9.12592,7.92037 l 7.6422,53.75962 c 0.93274,6.56145 4.98944,7.64073 8.95927,2.33394 50.33127,-67.2818 91.71148,-147.69022 126.4306,-237.87032 1.58744,-4.12325 0.51252,-10.18433 -2.37549,-13.52807 L 757.48643,77.437024 A 6.0853285,6.0853285 166.07265 0 0 746.95082,80.04966 Z M 252.61532,317.4336 v 445.11524 c 0,13.25483 5.22486,14.60738 12.04841,3.24441 39.52625,-65.82144 79.90143,-111.29792 120.5725,-149.66386 3.21393,-3.03178 4.40919,-8.74519 2.63939,-12.79352 l -26.925,-61.5897 a 19.012804,19.012804 89.206481 0 1 -0.20424,-14.74624 l 22.24368,-54.98227 c 1.657,-4.09579 0.38928,-9.86807 -2.79921,-12.92659 -38.96537,-37.3771 -77.63467,-81.79586 -115.52747,-144.90168 -6.82319,-11.36319 -12.04806,-10.01062 -12.04806,3.24421 z m 562.72139,-3.24423 c -37.89046,63.1014 -76.55799,107.51733 -115.51983,144.89367 -3.18838,3.05864 -4.45573,8.83091 -2.79839,12.92657 l 22.25226,54.99056 a 19.009349,19.009349 90.79256 0 1 -0.20399,14.74585 l -26.93208,61.59782 c -1.77,4.04825 -0.57498,9.76169 2.63884,12.79358 40.66626,38.36412 81.03896,83.83953 120.56275,149.65591 6.82363,11.36293 12.04855,10.01034 12.04855,-3.24449 V 317.4336 c 0,-13.25483 -5.22488,-14.6074 -12.04811,-3.24423 z m -377.0986,54.20348 -11.14598,78.31587 a 65.568335,65.568335 105.05627 0 1 -4.12569,15.337 l -26.06364,64.46912 a 19.016383,19.016383 89.196555 0 0 0.2068,14.74662 l 53.47814,122.2935 a 21.921679,21.921679 46.331733 0 0 10.37823,10.87224 l 71.8533,35.48545 a 16.202061,16.202061 0.00439256 0 0 14.34644,0.001 l 71.88552,-35.48765 a 21.914814,21.914814 133.67127 0 0 10.37841,-10.8713 L 682.9006,541.26162 a 19.0177,19.0177 90.802089 0 0 0.20645,-14.74679 l -26.06356,-64.4691 a 65.568631,65.568631 74.94376 0 1 -4.12568,-15.33701 l -11.14598,-78.31587 a 9.2191818,9.2191818 40.950006 0 0 -9.12721,-7.92019 h -185.2793 a 9.2191818,9.2191818 139.04999 0 0 -9.12721,7.92019 z m -29.67494,300.04561 c -57.59061,71.17797 -103.99811,158.76062 -142.29534,258.23433 -1.58745,4.12324 -0.51252,10.18433 2.3755,13.52807 l 53.86258,62.36204 a 6.0859872,6.0859872 166.07514 0 0 10.53663,-2.61236 l 15.12127,-65.66628 a 25.533488,25.533488 120.3642 0 1 7.71796,-13.1738 l 92.5139,-84.00215 a 19.461259,19.461259 115.41446 0 0 6.35095,-13.36636 l 5.5889,-104.26708 a 12.132315,12.132315 59.667521 0 0 -6.74574,-11.52895 l -18.30642,-9.0344 a 21.905977,21.905977 46.328871 0 1 -10.37789,-10.87081 l -8.0686,-18.46031 c -1.76949,-4.04846 -5.49461,-4.57671 -8.2737,-1.14194 z m 254.60952,1.14178 -8.06984,18.46063 a 21.911016,21.911016 133.66979 0 1 -10.37793,10.87135 l -18.3149,9.04081 a 12.133556,12.133556 120.32959 0 0 -6.74537,11.52965 l 5.58884,104.25927 a 19.461355,19.461355 64.585436 0 0 6.35098,13.36636 l 92.5139,84.00215 a 25.529597,25.529597 59.638288 0 1 7.71729,13.17396 l 15.11516,65.66589 a 6.0858774,6.0858774 13.929424 0 0 10.53627,2.61319 l 53.87129,-62.36302 c 2.88825,-3.34353 3.96336,-9.40444 2.37589,-13.52768 -38.2969,-99.47162 -84.7004,-187.05688 -142.28765,-258.23423 -2.779,-3.43483 -6.50423,-2.9067 -8.27393,1.14167 z m -94.2137,66.72778 -21.79284,10.75506 a 16.209865,16.209865 5.8365168e-4 0 1 -14.34779,-1.4e-4 l -21.77528,-10.74696 a 5.051368,5.051368 148.53732 0 0 -7.28646,4.45863 l -1.3451,95.55236 a 22.194248,22.194248 110.62839 0 1 -5.3029,14.08696 l -69.389,81.387 a 31.30833,31.30833 116.11659 0 0 -6.82393,13.91918 l -14.77374,70.82349 a 6.5034059,6.5034059 50.891451 0 0 6.36637,7.8314 h 255.0157 a 6.5039801,6.5039801 129.11102 0 0 6.36705,-7.8316 l -14.7673,-70.82315 a 31.302691,31.302691 63.885887 0 0 -6.82325,-13.91932 l -69.389,-81.387 a 22.19359,22.19359 69.372154 0 1 -5.30275,-14.08696 l -1.3434,-95.56018 a 5.0513762,5.0513762 31.463801 0 0 -7.28638,-4.45877 z"
   inkscape:path-effect="#path-effect869"
   inkscape:original-d="m 404.48832,55.624968 18.041,86.496122 79.7696,93.5625 1.289,91.50001 h 72.8223 l 1.291,-91.50001 79.7696,-93.5625 18.0312,-86.496122 z m -74.1386,12.730497 -66.9356,77.498045 c 36.94,97.545 81.5148,183.89984 136.5625,254.89064 l 10.4746,-73.56055 h 48.0996 l -4.2324,-78.90626 -104.3594,-94.76562 z m 419.2929,0 -19.6015,85.156255 -104.3594,94.76562 -4.2324,78.90626 h 48.1172 l 10.457,73.56055 c 55.0452,-70.9912 99.6144,-157.34514 136.5547,-254.89064 z M 252.61532,293.4336 v 493.11524 c 45.2385,-80.5976 91.6736,-132.52092 138.4648,-175.88282 l -33.334,-76.25 28.2442,-69.81445 c -45.0693,-42.4268 -89.7749,-93.48906 -133.375,-171.16797 z m 574.7695,0 c -43.5976,77.67441 -88.3018,128.73366 -133.3672,171.16016 l 28.254,69.82226 -33.3418,76.25782 c 46.7859,43.36009 93.2189,95.28299 138.455,175.875 z m -388.0195,67.03906 -13.4004,94.15625 -32.0606,79.30274 59.8887,136.95312 86.1992,42.57031 86.2325,-42.57031 59.8808,-136.95312 -32.0605,-79.30274 -13.4004,-94.15625 z m -25.7324,301.77735 c -61.3997,74.0189 -110.2728,166.41348 -150.2188,271.89648 l 66.9356,77.49801 19.6093,-85.15621 104.3594,-94.75781 6.4453,-120.24414 -32.6543,-16.11524 z m 252.7441,0 -14.4785,33.12109 -32.6621,16.12305 6.4453,120.23633 104.3594,94.75781 19.6015,85.15621 66.9454,-77.49801 c -39.9459,-105.4807 -88.8147,-197.87838 -150.211,-271.89648 z m -90.2441,70.51757 -36.1407,17.83594 -36.123,-17.82812 -1.5703,111.55078 -79.7696,93.5625 -18.041,86.48632 h 271.0157 l -18.0332,-86.48632 -79.7696,-93.5625 z" /></svg>
