<?xml version="1.0" encoding="utf-8"?>
<svg viewBox="0 0 640 640" xmlns="http://www.w3.org/2000/svg">
  <g style="" transform="matrix(1, 0, 0, -1, -0.000016000001782146, 627.6300048828125)">
    <g>
      <g>
        <path d="M 570.8 531.91 L 545.29 583.91 L 535.37 604.13 L 426 604.13 L 471.05 512.29 L 516.12 420.44 L 561.18 512.29 L 570.8 531.91 Z" opacity="1" fill-opacity="1" style="fill: rgb(156, 54, 42);"/>
        <path d="M 397.53 378.58 L 358.77 421.44 L 343.06 438.81 L 332.27 492.06 L 320.01 552.55 L 307.74 492.07 L 296.94 438.8 L 281.24 421.45 L 242.47 378.6 L 397.53 378.58 L 242.47 378.58 L 281.23 220.15 L 320 61.71 L 358.76 220.15 L 397.53 378.58 Z" opacity="1" fill-opacity="1" style="fill: rgb(156, 54, 42);"/>
        <path d="M 378.63 604.13 L 442.61 382.52 L 442.61 379.79 L 320 23.5 L 500.23 381.16 L 378.63 604.13 Z" opacity="1" fill-opacity="1" style="fill: rgb(156, 54, 42);"/>
        <path d="M 197.38 382.52 L 261.36 604.13 L 139.76 381.16 L 320 23.5 L 197.38 379.79 L 197.38 382.52 Z" opacity="1" fill-opacity="1" style="fill: rgb(156, 54, 42);"/>
        <path d="M 214 604.13 L 104.63 604.13 L 94.71 583.91 L 69.2 531.91 L 78.82 512.29 L 123.89 420.44 L 168.95 512.29 L 214 604.13 Z" opacity="1" fill-opacity="1" style="fill: rgb(156, 54, 42);"/>
      </g>
    </g>
  </g>
</svg>
